STARTFONT 2.1
FONT -FontForge-Zen Tokyo Zoo-Book-R-Normal--10-100-72-72-P-47-ISO10646-1
SIZE 10 72 72
FONTBOUNDINGBOX 13 14 -1 -3
COMMENT "Generated by fontforge, http://fontforge.sourceforge.net"
COMMENT "Copyright 2021 The Zen Tokyo Zoo Project Authors (https://github.com/googlefonts/zen-tokyo-zoo)"
STARTPROPERTIES 39
FOUNDRY "FontForge"
FAMILY_NAME "Zen Tokyo Zoo"
WEIGHT_NAME "Book"
SLANT "R"
SETWIDTH_NAME "Normal"
ADD_STYLE_NAME ""
PIXEL_SIZE 10
POINT_SIZE 100
RESOLUTION_X 72
RESOLUTION_Y 72
SPACING "P"
AVERAGE_WIDTH 47
CHARSET_REGISTRY "ISO10646"
CHARSET_ENCODING "1"
FONTNAME_REGISTRY ""
CHARSET_COLLECTIONS "ISO10646-1"
FONT_NAME "ZenTokyoZoo-Regular"
FACE_NAME "Zen Tokyo Zoo Regular"
COPYRIGHT "Copyright 2021 The Zen Tokyo Zoo Project Authors (https://github.com/googlefonts/zen-tokyo-zoo)"
FONT_VERSION "1.002; ttfautohint (v1.8.3)"
FONT_ASCENT 8
FONT_DESCENT 2
UNDERLINE_POSITION -1
UNDERLINE_THICKNESS 1
X_HEIGHT 3
CAP_HEIGHT 7
RAW_ASCENT 800
RAW_DESCENT 200
NORM_SPACE 3
RELATIVE_WEIGHT 40
RELATIVE_SETWIDTH 50
SUPERSCRIPT_X 0
SUPERSCRIPT_Y 3
SUPERSCRIPT_SIZE 6
SUBSCRIPT_X 0
SUBSCRIPT_Y 0
SUBSCRIPT_SIZE 6
AVG_LOWERCASE_WIDTH 41
AVG_UPPERCASE_WIDTH 76
ENDPROPERTIES
CHARS 338
STARTCHAR CR
ENCODING 13
SWIDTH 600 0
DWIDTH 6 0
BBX 1 1 0 0
BITMAP
00
ENDCHAR
STARTCHAR space
ENCODING 32
SWIDTH 280 0
DWIDTH 3 0
BBX 1 1 0 0
BITMAP
00
ENDCHAR
STARTCHAR exclam
ENCODING 33
SWIDTH 196 0
DWIDTH 2 0
BBX 1 4 0 0
BITMAP
80
80
80
80
ENDCHAR
STARTCHAR quotedbl
ENCODING 34
SWIDTH 302 0
DWIDTH 3 0
BBX 3 1 0 3
BITMAP
A0
ENDCHAR
STARTCHAR numbersign
ENCODING 35
SWIDTH 513 0
DWIDTH 5 0
BBX 5 4 0 0
BITMAP
78
58
F0
50
ENDCHAR
STARTCHAR dollar
ENCODING 36
SWIDTH 379 0
DWIDTH 4 0
BBX 3 5 0 0
BITMAP
60
A0
60
A0
60
ENDCHAR
STARTCHAR percent
ENCODING 37
SWIDTH 493 0
DWIDTH 5 0
BBX 5 4 0 0
BITMAP
D0
60
30
58
ENDCHAR
STARTCHAR ampersand
ENCODING 38
SWIDTH 487 0
DWIDTH 5 0
BBX 4 4 1 0
BITMAP
C0
A0
D0
E0
ENDCHAR
STARTCHAR quotesingle
ENCODING 39
SWIDTH 146 0
DWIDTH 1 0
BBX 1 1 0 3
BITMAP
80
ENDCHAR
STARTCHAR parenleft
ENCODING 40
SWIDTH 210 0
DWIDTH 2 0
BBX 2 5 0 0
BITMAP
40
80
80
80
40
ENDCHAR
STARTCHAR parenright
ENCODING 41
SWIDTH 210 0
DWIDTH 2 0
BBX 2 5 0 0
BITMAP
80
40
40
40
80
ENDCHAR
STARTCHAR asterisk
ENCODING 42
SWIDTH 358 0
DWIDTH 4 0
BBX 3 2 0 2
BITMAP
60
E0
ENDCHAR
STARTCHAR plus
ENCODING 43
SWIDTH 394 0
DWIDTH 4 0
BBX 4 3 0 1
BITMAP
40
D0
40
ENDCHAR
STARTCHAR comma
ENCODING 44
SWIDTH 216 0
DWIDTH 2 0
BBX 2 1 0 0
BITMAP
C0
ENDCHAR
STARTCHAR hyphen
ENCODING 45
SWIDTH 326 0
DWIDTH 3 0
BBX 3 2 0 1
BITMAP
E0
E0
ENDCHAR
STARTCHAR period
ENCODING 46
SWIDTH 176 0
DWIDTH 2 0
BBX 1 1 0 0
BITMAP
80
ENDCHAR
STARTCHAR slash
ENCODING 47
SWIDTH 298 0
DWIDTH 3 0
BBX 3 4 0 0
BITMAP
60
40
C0
80
ENDCHAR
STARTCHAR zero
ENCODING 48
SWIDTH 306 0
DWIDTH 3 0
BBX 3 4 0 0
BITMAP
E0
A0
A0
E0
ENDCHAR
STARTCHAR one
ENCODING 49
SWIDTH 306 0
DWIDTH 3 0
BBX 3 4 0 0
BITMAP
A0
20
20
20
ENDCHAR
STARTCHAR two
ENCODING 50
SWIDTH 299 0
DWIDTH 3 0
BBX 3 4 0 0
BITMAP
E0
60
C0
E0
ENDCHAR
STARTCHAR three
ENCODING 51
SWIDTH 324 0
DWIDTH 3 0
BBX 3 4 0 0
BITMAP
E0
40
60
E0
ENDCHAR
STARTCHAR four
ENCODING 52
SWIDTH 339 0
DWIDTH 3 0
BBX 3 4 0 0
BITMAP
60
C0
E0
E0
ENDCHAR
STARTCHAR five
ENCODING 53
SWIDTH 363 0
DWIDTH 4 0
BBX 2 4 1 0
BITMAP
C0
80
40
C0
ENDCHAR
STARTCHAR six
ENCODING 54
SWIDTH 306 0
DWIDTH 3 0
BBX 3 4 0 0
BITMAP
E0
C0
A0
E0
ENDCHAR
STARTCHAR seven
ENCODING 55
SWIDTH 298 0
DWIDTH 3 0
BBX 3 4 0 0
BITMAP
E0
20
40
40
ENDCHAR
STARTCHAR eight
ENCODING 56
SWIDTH 306 0
DWIDTH 3 0
BBX 3 4 0 0
BITMAP
60
E0
E0
E0
ENDCHAR
STARTCHAR nine
ENCODING 57
SWIDTH 306 0
DWIDTH 3 0
BBX 3 4 0 0
BITMAP
60
A0
60
E0
ENDCHAR
STARTCHAR colon
ENCODING 58
SWIDTH 176 0
DWIDTH 2 0
BBX 1 2 0 0
BITMAP
80
80
ENDCHAR
STARTCHAR semicolon
ENCODING 59
SWIDTH 217 0
DWIDTH 2 0
BBX 2 3 0 -1
BITMAP
40
00
C0
ENDCHAR
STARTCHAR less
ENCODING 60
SWIDTH 450 0
DWIDTH 5 0
BBX 4 4 0 0
BITMAP
10
60
E0
10
ENDCHAR
STARTCHAR equal
ENCODING 61
SWIDTH 344 0
DWIDTH 3 0
BBX 3 3 0 0
BITMAP
E0
E0
E0
ENDCHAR
STARTCHAR greater
ENCODING 62
SWIDTH 450 0
DWIDTH 5 0
BBX 4 4 0 0
BITMAP
C0
70
60
C0
ENDCHAR
STARTCHAR question
ENCODING 63
SWIDTH 346 0
DWIDTH 3 0
BBX 3 4 0 0
BITMAP
60
E0
40
40
ENDCHAR
STARTCHAR at
ENCODING 64
SWIDTH 490 0
DWIDTH 5 0
BBX 5 4 0 0
BITMAP
70
A8
F0
70
ENDCHAR
STARTCHAR A
ENCODING 65
SWIDTH 798 0
DWIDTH 8 0
BBX 8 8 0 0
BITMAP
18
18
34
5C
76
7E
5E
C3
ENDCHAR
STARTCHAR B
ENCODING 66
SWIDTH 784 0
DWIDTH 8 0
BBX 8 8 0 0
BITMAP
BC
BA
C5
BE
BE
C3
BE
BE
ENDCHAR
STARTCHAR C
ENCODING 67
SWIDTH 776 0
DWIDTH 8 0
BBX 7 8 0 0
BITMAP
3E
5E
60
C0
C0
60
5E
3E
ENDCHAR
STARTCHAR D
ENCODING 68
SWIDTH 806 0
DWIDTH 8 0
BBX 8 8 0 0
BITMAP
BC
BA
C6
C3
C3
C6
BA
BC
ENDCHAR
STARTCHAR E
ENCODING 69
SWIDTH 677 0
DWIDTH 7 0
BBX 6 8 0 0
BITMAP
BC
BC
C0
BC
BC
C0
BC
BC
ENDCHAR
STARTCHAR F
ENCODING 70
SWIDTH 677 0
DWIDTH 7 0
BBX 6 8 0 0
BITMAP
BC
BC
C0
BC
BC
C0
C0
C0
ENDCHAR
STARTCHAR G
ENCODING 71
SWIDTH 872 0
DWIDTH 9 0
BBX 8 8 0 0
BITMAP
3E
5D
62
CF
CF
6F
5F
3E
ENDCHAR
STARTCHAR H
ENCODING 72
SWIDTH 781 0
DWIDTH 8 0
BBX 7 8 0 0
BITMAP
C2
C2
C2
BA
BA
C2
C2
C2
ENDCHAR
STARTCHAR I
ENCODING 73
SWIDTH 262 0
DWIDTH 3 0
BBX 2 8 0 0
BITMAP
C0
C0
C0
C0
C0
C0
C0
C0
ENDCHAR
STARTCHAR J
ENCODING 74
SWIDTH 674 0
DWIDTH 7 0
BBX 6 8 0 0
BITMAP
04
04
04
04
04
CC
74
78
ENDCHAR
STARTCHAR K
ENCODING 75
SWIDTH 739 0
DWIDTH 7 0
BBX 7 8 0 0
BITMAP
CE
CC
D8
D8
B8
D4
CC
C6
ENDCHAR
STARTCHAR L
ENCODING 76
SWIDTH 604 0
DWIDTH 6 0
BBX 6 8 0 0
BITMAP
C0
C0
C0
C0
C0
C0
BC
BC
ENDCHAR
STARTCHAR M
ENCODING 77
SWIDTH 909 0
DWIDTH 9 0
BBX 9 8 0 0
BITMAP
C280
E280
D580
FF80
D580
C980
C180
C180
ENDCHAR
STARTCHAR N
ENCODING 78
SWIDTH 796 0
DWIDTH 8 0
BBX 7 8 0 0
BITMAP
E2
D2
F2
DA
DA
CA
CA
C6
ENDCHAR
STARTCHAR O
ENCODING 79
SWIDTH 894 0
DWIDTH 9 0
BBX 9 8 0 0
BITMAP
3E00
5D00
6300
C180
C180
6300
5D00
3E00
ENDCHAR
STARTCHAR P
ENCODING 80
SWIDTH 743 0
DWIDTH 7 0
BBX 7 8 0 0
BITMAP
BC
BA
C6
BE
BC
C0
C0
C0
ENDCHAR
STARTCHAR Q
ENCODING 81
SWIDTH 911 0
DWIDTH 9 0
BBX 9 8 0 0
BITMAP
3E00
5D00
6300
C180
C280
6500
5A80
3F00
ENDCHAR
STARTCHAR R
ENCODING 82
SWIDTH 745 0
DWIDTH 7 0
BBX 7 8 0 0
BITMAP
BC
BA
C6
BE
BC
CC
C4
C6
ENDCHAR
STARTCHAR S
ENCODING 83
SWIDTH 660 0
DWIDTH 7 0
BBX 6 8 0 0
BITMAP
78
BC
C0
F0
1C
04
BC
78
ENDCHAR
STARTCHAR T
ENCODING 84
SWIDTH 641 0
DWIDTH 6 0
BBX 6 8 0 0
BITMAP
FC
FC
30
30
30
30
30
30
ENDCHAR
STARTCHAR U
ENCODING 85
SWIDTH 702 0
DWIDTH 7 0
BBX 7 8 0 0
BITMAP
C6
C6
C6
C6
C6
AC
54
38
ENDCHAR
STARTCHAR V
ENCODING 86
SWIDTH 758 0
DWIDTH 8 0
BBX 7 8 0 0
BITMAP
C6
46
6A
6C
2C
34
28
18
ENDCHAR
STARTCHAR W
ENCODING 87
SWIDTH 972 0
DWIDTH 10 0
BBX 10 8 0 0
BITMAP
CCC0
4D80
AD80
7580
6B00
2F00
5700
3300
ENDCHAR
STARTCHAR X
ENCODING 88
SWIDTH 712 0
DWIDTH 7 0
BBX 7 8 0 0
BITMAP
E6
6C
38
38
38
28
6C
CA
ENDCHAR
STARTCHAR Y
ENCODING 89
SWIDTH 769 0
DWIDTH 8 0
BBX 8 8 0 0
BITMAP
C7
66
5C
3C
00
18
18
18
ENDCHAR
STARTCHAR Z
ENCODING 90
SWIDTH 708 0
DWIDTH 7 0
BBX 7 8 0 0
BITMAP
7A
7C
08
18
30
30
5C
FC
ENDCHAR
STARTCHAR bracketleft
ENCODING 91
SWIDTH 320 0
DWIDTH 3 0
BBX 3 5 0 -1
BITMAP
A0
80
80
A0
A0
ENDCHAR
STARTCHAR backslash
ENCODING 92
SWIDTH 298 0
DWIDTH 3 0
BBX 3 4 0 0
BITMAP
80
C0
40
60
ENDCHAR
STARTCHAR bracketright
ENCODING 93
SWIDTH 320 0
DWIDTH 3 0
BBX 3 5 0 -1
BITMAP
A0
20
20
A0
A0
ENDCHAR
STARTCHAR asciicircum
ENCODING 94
SWIDTH 309 0
DWIDTH 3 0
BBX 3 2 0 2
BITMAP
40
E0
ENDCHAR
STARTCHAR underscore
ENCODING 95
SWIDTH 472 0
DWIDTH 5 0
BBX 4 2 0 0
BITMAP
F0
F0
ENDCHAR
STARTCHAR grave
ENCODING 96
SWIDTH 195 0
DWIDTH 2 0
BBX 1 1 0 5
BITMAP
80
ENDCHAR
STARTCHAR a
ENCODING 97
SWIDTH 414 0
DWIDTH 4 0
BBX 4 4 0 0
BITMAP
60
60
60
F0
ENDCHAR
STARTCHAR b
ENCODING 98
SWIDTH 423 0
DWIDTH 4 0
BBX 4 4 0 0
BITMAP
F0
F0
F0
F0
ENDCHAR
STARTCHAR c
ENCODING 99
SWIDTH 446 0
DWIDTH 4 0
BBX 4 4 0 0
BITMAP
70
80
80
70
ENDCHAR
STARTCHAR d
ENCODING 100
SWIDTH 450 0
DWIDTH 5 0
BBX 4 4 0 0
BITMAP
F0
90
90
F0
ENDCHAR
STARTCHAR e
ENCODING 101
SWIDTH 363 0
DWIDTH 4 0
BBX 3 4 0 0
BITMAP
E0
E0
E0
E0
ENDCHAR
STARTCHAR f
ENCODING 102
SWIDTH 365 0
DWIDTH 4 0
BBX 3 4 0 0
BITMAP
E0
E0
E0
80
ENDCHAR
STARTCHAR g
ENCODING 103
SWIDTH 483 0
DWIDTH 5 0
BBX 5 4 0 0
BITMAP
70
98
98
70
ENDCHAR
STARTCHAR h
ENCODING 104
SWIDTH 428 0
DWIDTH 4 0
BBX 4 4 0 0
BITMAP
90
F0
F0
90
ENDCHAR
STARTCHAR i
ENCODING 105
SWIDTH 176 0
DWIDTH 2 0
BBX 1 4 0 0
BITMAP
80
80
80
80
ENDCHAR
STARTCHAR j
ENCODING 106
SWIDTH 390 0
DWIDTH 4 0
BBX 4 4 0 0
BITMAP
10
10
20
E0
ENDCHAR
STARTCHAR k
ENCODING 107
SWIDTH 381 0
DWIDTH 4 0
BBX 4 4 0 0
BITMAP
B0
A0
E0
B0
ENDCHAR
STARTCHAR l
ENCODING 108
SWIDTH 330 0
DWIDTH 3 0
BBX 3 4 0 0
BITMAP
80
80
80
E0
ENDCHAR
STARTCHAR m
ENCODING 109
SWIDTH 501 0
DWIDTH 5 0
BBX 5 4 0 0
BITMAP
D8
F8
A8
88
ENDCHAR
STARTCHAR n
ENCODING 110
SWIDTH 444 0
DWIDTH 4 0
BBX 4 4 0 0
BITMAP
D0
D0
B0
90
ENDCHAR
STARTCHAR o
ENCODING 111
SWIDTH 494 0
DWIDTH 5 0
BBX 5 4 0 0
BITMAP
70
88
88
70
ENDCHAR
STARTCHAR p
ENCODING 112
SWIDTH 412 0
DWIDTH 4 0
BBX 4 4 0 0
BITMAP
F0
F0
E0
80
ENDCHAR
STARTCHAR q
ENCODING 113
SWIDTH 494 0
DWIDTH 5 0
BBX 5 4 0 0
BITMAP
70
88
98
78
ENDCHAR
STARTCHAR r
ENCODING 114
SWIDTH 412 0
DWIDTH 4 0
BBX 4 4 0 0
BITMAP
F0
F0
E0
B0
ENDCHAR
STARTCHAR s
ENCODING 115
SWIDTH 379 0
DWIDTH 4 0
BBX 3 4 0 0
BITMAP
60
E0
60
E0
ENDCHAR
STARTCHAR t
ENCODING 116
SWIDTH 349 0
DWIDTH 3 0
BBX 3 4 0 0
BITMAP
E0
40
40
40
ENDCHAR
STARTCHAR u
ENCODING 117
SWIDTH 400 0
DWIDTH 4 0
BBX 4 4 0 0
BITMAP
90
90
90
60
ENDCHAR
STARTCHAR v
ENCODING 118
SWIDTH 394 0
DWIDTH 4 0
BBX 4 4 0 0
BITMAP
90
60
60
60
ENDCHAR
STARTCHAR w
ENCODING 119
SWIDTH 521 0
DWIDTH 5 0
BBX 5 4 0 0
BITMAP
A8
E8
70
50
ENDCHAR
STARTCHAR x
ENCODING 120
SWIDTH 369 0
DWIDTH 4 0
BBX 4 4 0 0
BITMAP
F0
60
60
B0
ENDCHAR
STARTCHAR y
ENCODING 121
SWIDTH 422 0
DWIDTH 4 0
BBX 4 4 0 0
BITMAP
D0
60
20
20
ENDCHAR
STARTCHAR z
ENCODING 122
SWIDTH 409 0
DWIDTH 4 0
BBX 4 4 0 0
BITMAP
F0
60
40
F0
ENDCHAR
STARTCHAR braceleft
ENCODING 123
SWIDTH 443 0
DWIDTH 4 0
BBX 4 5 0 -1
BITMAP
30
20
A0
30
30
ENDCHAR
STARTCHAR bar
ENCODING 124
SWIDTH 196 0
DWIDTH 2 0
BBX 1 5 0 0
BITMAP
80
80
80
80
80
ENDCHAR
STARTCHAR braceright
ENCODING 125
SWIDTH 506 0
DWIDTH 5 0
BBX 4 5 1 -1
BITMAP
C0
40
50
C0
C0
ENDCHAR
STARTCHAR asciitilde
ENCODING 126
SWIDTH 450 0
DWIDTH 5 0
BBX 4 2 0 1
BITMAP
F0
F0
ENDCHAR
STARTCHAR uni00A0
ENCODING 160
SWIDTH 280 0
DWIDTH 3 0
BBX 1 1 0 0
BITMAP
00
ENDCHAR
STARTCHAR exclamdown
ENCODING 161
SWIDTH 196 0
DWIDTH 2 0
BBX 1 4 0 -1
BITMAP
80
80
80
80
ENDCHAR
STARTCHAR cent
ENCODING 162
SWIDTH 305 0
DWIDTH 3 0
BBX 3 5 0 -1
BITMAP
40
60
80
60
40
ENDCHAR
STARTCHAR sterling
ENCODING 163
SWIDTH 408 0
DWIDTH 4 0
BBX 4 4 0 0
BITMAP
E0
E0
40
F0
ENDCHAR
STARTCHAR currency
ENCODING 164
SWIDTH 401 0
DWIDTH 4 0
BBX 4 3 0 1
BITMAP
F0
60
D0
ENDCHAR
STARTCHAR yen
ENCODING 165
SWIDTH 423 0
DWIDTH 4 0
BBX 4 4 0 0
BITMAP
D0
60
B0
B0
ENDCHAR
STARTCHAR brokenbar
ENCODING 166
SWIDTH 196 0
DWIDTH 2 0
BBX 1 4 0 0
BITMAP
80
80
80
80
ENDCHAR
STARTCHAR section
ENCODING 167
SWIDTH 322 0
DWIDTH 3 0
BBX 3 4 0 0
BITMAP
E0
A0
E0
E0
ENDCHAR
STARTCHAR dieresis
ENCODING 168
SWIDTH 287 0
DWIDTH 3 0
BBX 2 1 0 5
BITMAP
C0
ENDCHAR
STARTCHAR copyright
ENCODING 169
SWIDTH 493 0
DWIDTH 5 0
BBX 5 5 0 0
BITMAP
70
A8
C8
A8
70
ENDCHAR
STARTCHAR ordfeminine
ENCODING 170
SWIDTH 331 0
DWIDTH 3 0
BBX 3 2 0 2
BITMAP
40
E0
ENDCHAR
STARTCHAR guillemotleft
ENCODING 171
SWIDTH 298 0
DWIDTH 3 0
BBX 3 2 0 1
BITMAP
E0
A0
ENDCHAR
STARTCHAR logicalnot
ENCODING 172
SWIDTH 420 0
DWIDTH 4 0
BBX 4 3 0 0
BITMAP
F0
F0
10
ENDCHAR
STARTCHAR uni00AD
ENCODING 173
SWIDTH 326 0
DWIDTH 3 0
BBX 3 2 0 1
BITMAP
E0
E0
ENDCHAR
STARTCHAR registered
ENCODING 174
SWIDTH 493 0
DWIDTH 5 0
BBX 5 5 0 0
BITMAP
70
88
A8
D0
20
ENDCHAR
STARTCHAR macron
ENCODING 175
SWIDTH 331 0
DWIDTH 3 0
BBX 3 1 0 4
BITMAP
E0
ENDCHAR
STARTCHAR degree
ENCODING 176
SWIDTH 298 0
DWIDTH 3 0
BBX 3 3 0 2
BITMAP
40
E0
40
ENDCHAR
STARTCHAR plusminus
ENCODING 177
SWIDTH 418 0
DWIDTH 4 0
BBX 4 4 0 0
BITMAP
20
B0
20
F0
ENDCHAR
STARTCHAR uni00B2
ENCODING 178
SWIDTH 233 0
DWIDTH 2 0
BBX 2 2 0 2
BITMAP
C0
C0
ENDCHAR
STARTCHAR uni00B3
ENCODING 179
SWIDTH 228 0
DWIDTH 2 0
BBX 2 2 0 2
BITMAP
C0
C0
ENDCHAR
STARTCHAR acute
ENCODING 180
SWIDTH 195 0
DWIDTH 2 0
BBX 1 1 0 5
BITMAP
80
ENDCHAR
STARTCHAR uni00B5
ENCODING 181
SWIDTH 506 0
DWIDTH 5 0
BBX 5 5 0 -1
BITMAP
90
90
90
B8
80
ENDCHAR
STARTCHAR paragraph
ENCODING 182
SWIDTH 435 0
DWIDTH 4 0
BBX 4 4 0 0
BITMAP
F0
F0
70
30
ENDCHAR
STARTCHAR periodcentered
ENCODING 183
SWIDTH 176 0
DWIDTH 2 0
BBX 1 1 0 1
BITMAP
80
ENDCHAR
STARTCHAR cedilla
ENCODING 184
SWIDTH 261 0
DWIDTH 3 0
BBX 2 2 0 -2
BITMAP
40
C0
ENDCHAR
STARTCHAR uni00B9
ENCODING 185
SWIDTH 218 0
DWIDTH 2 0
BBX 2 2 0 2
BITMAP
C0
40
ENDCHAR
STARTCHAR ordmasculine
ENCODING 186
SWIDTH 335 0
DWIDTH 3 0
BBX 3 2 0 2
BITMAP
E0
60
ENDCHAR
STARTCHAR guillemotright
ENCODING 187
SWIDTH 298 0
DWIDTH 3 0
BBX 3 2 0 1
BITMAP
E0
A0
ENDCHAR
STARTCHAR onequarter
ENCODING 188
SWIDTH 429 0
DWIDTH 4 0
BBX 4 4 0 0
BITMAP
B0
60
70
50
ENDCHAR
STARTCHAR onehalf
ENCODING 189
SWIDTH 437 0
DWIDTH 4 0
BBX 4 4 0 0
BITMAP
B0
70
50
90
ENDCHAR
STARTCHAR threequarters
ENCODING 190
SWIDTH 409 0
DWIDTH 4 0
BBX 4 4 0 0
BITMAP
F0
A0
70
70
ENDCHAR
STARTCHAR questiondown
ENCODING 191
SWIDTH 346 0
DWIDTH 3 0
BBX 3 5 0 -1
BITMAP
40
40
C0
A0
40
ENDCHAR
STARTCHAR Agrave
ENCODING 192
SWIDTH 798 0
DWIDTH 8 0
BBX 8 10 0 0
BITMAP
30
10
18
18
34
5C
76
7E
5E
C3
ENDCHAR
STARTCHAR Aacute
ENCODING 193
SWIDTH 798 0
DWIDTH 8 0
BBX 8 10 0 0
BITMAP
0C
08
18
18
34
5C
76
7E
5E
C3
ENDCHAR
STARTCHAR Acircumflex
ENCODING 194
SWIDTH 798 0
DWIDTH 8 0
BBX 8 10 0 0
BITMAP
18
2C
18
18
34
5C
76
7E
5E
C3
ENDCHAR
STARTCHAR Atilde
ENCODING 195
SWIDTH 798 0
DWIDTH 8 0
BBX 8 10 0 0
BITMAP
14
28
18
18
34
5C
76
7E
5E
C3
ENDCHAR
STARTCHAR Adieresis
ENCODING 196
SWIDTH 798 0
DWIDTH 8 0
BBX 8 11 0 0
BITMAP
24
5A
24
18
18
34
5C
76
7E
5E
C3
ENDCHAR
STARTCHAR Aring
ENCODING 197
SWIDTH 798 0
DWIDTH 8 0
BBX 8 11 0 0
BITMAP
18
18
18
18
18
34
5C
76
7E
5E
C3
ENDCHAR
STARTCHAR AE
ENCODING 198
SWIDTH 1078 0
DWIDTH 11 0
BBX 10 8 0 0
BITMAP
0BC0
1BC0
1400
35C0
35C0
6A00
7BC0
DDC0
ENDCHAR
STARTCHAR Ccedilla
ENCODING 199
SWIDTH 776 0
DWIDTH 8 0
BBX 7 11 0 -3
BITMAP
3E
5E
60
C0
C0
60
5E
3E
00
18
18
ENDCHAR
STARTCHAR Egrave
ENCODING 200
SWIDTH 677 0
DWIDTH 7 0
BBX 6 10 0 0
BITMAP
10
08
BC
BC
C0
BC
BC
C0
BC
BC
ENDCHAR
STARTCHAR Eacute
ENCODING 201
SWIDTH 677 0
DWIDTH 7 0
BBX 6 10 0 0
BITMAP
08
10
BC
BC
C0
BC
BC
C0
BC
BC
ENDCHAR
STARTCHAR Ecircumflex
ENCODING 202
SWIDTH 677 0
DWIDTH 7 0
BBX 6 10 0 0
BITMAP
38
28
BC
BC
C0
BC
BC
C0
BC
BC
ENDCHAR
STARTCHAR Edieresis
ENCODING 203
SWIDTH 677 0
DWIDTH 7 0
BBX 6 11 0 0
BITMAP
24
5C
24
BC
BC
C0
BC
BC
C0
BC
BC
ENDCHAR
STARTCHAR Igrave
ENCODING 204
SWIDTH 262 0
DWIDTH 3 0
BBX 3 10 -1 0
BITMAP
C0
40
60
60
60
60
60
60
60
60
ENDCHAR
STARTCHAR Iacute
ENCODING 205
SWIDTH 262 0
DWIDTH 3 0
BBX 3 10 0 0
BITMAP
20
40
C0
C0
C0
C0
C0
C0
C0
C0
ENDCHAR
STARTCHAR Icircumflex
ENCODING 206
SWIDTH 262 0
DWIDTH 3 0
BBX 4 10 -1 0
BITMAP
60
F0
60
60
60
60
60
60
60
60
ENDCHAR
STARTCHAR Idieresis
ENCODING 207
SWIDTH 262 0
DWIDTH 3 0
BBX 5 11 -1 0
BITMAP
90
E8
90
60
60
60
60
60
60
60
60
ENDCHAR
STARTCHAR Eth
ENCODING 208
SWIDTH 856 0
DWIDTH 9 0
BBX 8 8 0 0
BITMAP
7C
7E
63
F1
F1
63
7E
7C
ENDCHAR
STARTCHAR Ntilde
ENCODING 209
SWIDTH 796 0
DWIDTH 8 0
BBX 7 10 0 0
BITMAP
14
28
E2
D2
F2
DA
DA
CA
CA
C6
ENDCHAR
STARTCHAR Ograve
ENCODING 210
SWIDTH 894 0
DWIDTH 9 0
BBX 9 10 0 0
BITMAP
1000
0800
3E00
5D00
6300
C180
C180
6300
5D00
3E00
ENDCHAR
STARTCHAR Oacute
ENCODING 211
SWIDTH 894 0
DWIDTH 9 0
BBX 9 10 0 0
BITMAP
0400
0800
3E00
5D00
6300
C180
C180
6300
5D00
3E00
ENDCHAR
STARTCHAR Ocircumflex
ENCODING 212
SWIDTH 894 0
DWIDTH 9 0
BBX 9 10 0 0
BITMAP
1800
1400
3E00
5D00
6300
C180
C180
6300
5D00
3E00
ENDCHAR
STARTCHAR Otilde
ENCODING 213
SWIDTH 894 0
DWIDTH 9 0
BBX 9 10 0 0
BITMAP
1200
2C00
3E00
5D00
6300
C180
C180
6300
5D00
3E00
ENDCHAR
STARTCHAR Odieresis
ENCODING 214
SWIDTH 894 0
DWIDTH 9 0
BBX 9 11 0 0
BITMAP
1400
3600
1400
3E00
5D00
6300
C180
C180
6300
5D00
3E00
ENDCHAR
STARTCHAR multiply
ENCODING 215
SWIDTH 370 0
DWIDTH 4 0
BBX 3 3 0 0
BITMAP
E0
E0
20
ENDCHAR
STARTCHAR Oslash
ENCODING 216
SWIDTH 894 0
DWIDTH 9 0
BBX 9 8 0 0
BITMAP
3F00
5B00
6700
DD80
E980
B300
6D00
7E00
ENDCHAR
STARTCHAR Ugrave
ENCODING 217
SWIDTH 702 0
DWIDTH 7 0
BBX 7 10 0 0
BITMAP
20
10
C6
C6
C6
C6
C6
AC
54
38
ENDCHAR
STARTCHAR Uacute
ENCODING 218
SWIDTH 702 0
DWIDTH 7 0
BBX 7 10 0 0
BITMAP
08
10
C6
C6
C6
C6
C6
AC
54
38
ENDCHAR
STARTCHAR Ucircumflex
ENCODING 219
SWIDTH 702 0
DWIDTH 7 0
BBX 7 10 0 0
BITMAP
30
28
C6
C6
C6
C6
C6
AC
54
38
ENDCHAR
STARTCHAR Udieresis
ENCODING 220
SWIDTH 702 0
DWIDTH 7 0
BBX 7 11 0 0
BITMAP
28
6C
28
C6
C6
C6
C6
C6
AC
54
38
ENDCHAR
STARTCHAR Yacute
ENCODING 221
SWIDTH 769 0
DWIDTH 8 0
BBX 8 10 0 0
BITMAP
0C
18
C7
66
5C
3C
00
18
18
18
ENDCHAR
STARTCHAR Thorn
ENCODING 222
SWIDTH 743 0
DWIDTH 7 0
BBX 7 8 0 0
BITMAP
C0
BC
BE
BE
BE
BE
BC
C0
ENDCHAR
STARTCHAR germandbls
ENCODING 223
SWIDTH 424 0
DWIDTH 4 0
BBX 4 4 0 0
BITMAP
70
B0
B0
B0
ENDCHAR
STARTCHAR agrave
ENCODING 224
SWIDTH 414 0
DWIDTH 4 0
BBX 4 6 0 0
BITMAP
40
00
60
60
60
F0
ENDCHAR
STARTCHAR aacute
ENCODING 225
SWIDTH 414 0
DWIDTH 4 0
BBX 4 6 0 0
BITMAP
20
00
60
60
60
F0
ENDCHAR
STARTCHAR acircumflex
ENCODING 226
SWIDTH 414 0
DWIDTH 4 0
BBX 4 6 0 0
BITMAP
60
00
60
60
60
F0
ENDCHAR
STARTCHAR atilde
ENCODING 227
SWIDTH 414 0
DWIDTH 4 0
BBX 4 5 0 0
BITMAP
60
60
60
60
F0
ENDCHAR
STARTCHAR adieresis
ENCODING 228
SWIDTH 414 0
DWIDTH 4 0
BBX 4 6 0 0
BITMAP
60
00
60
60
60
F0
ENDCHAR
STARTCHAR aring
ENCODING 229
SWIDTH 414 0
DWIDTH 4 0
BBX 4 6 0 0
BITMAP
20
20
60
60
60
F0
ENDCHAR
STARTCHAR ae
ENCODING 230
SWIDTH 593 0
DWIDTH 6 0
BBX 6 4 0 0
BITMAP
3C
58
58
FC
ENDCHAR
STARTCHAR ccedilla
ENCODING 231
SWIDTH 446 0
DWIDTH 4 0
BBX 4 6 0 -2
BITMAP
70
80
80
70
20
20
ENDCHAR
STARTCHAR egrave
ENCODING 232
SWIDTH 363 0
DWIDTH 4 0
BBX 3 6 0 0
BITMAP
40
00
E0
E0
E0
E0
ENDCHAR
STARTCHAR eacute
ENCODING 233
SWIDTH 363 0
DWIDTH 4 0
BBX 3 6 0 0
BITMAP
20
00
E0
E0
E0
E0
ENDCHAR
STARTCHAR ecircumflex
ENCODING 234
SWIDTH 363 0
DWIDTH 4 0
BBX 3 6 0 0
BITMAP
60
00
E0
E0
E0
E0
ENDCHAR
STARTCHAR edieresis
ENCODING 235
SWIDTH 363 0
DWIDTH 4 0
BBX 3 6 0 0
BITMAP
60
00
E0
E0
E0
E0
ENDCHAR
STARTCHAR igrave
ENCODING 236
SWIDTH 176 0
DWIDTH 2 0
BBX 1 6 0 0
BITMAP
80
00
80
80
80
80
ENDCHAR
STARTCHAR iacute
ENCODING 237
SWIDTH 176 0
DWIDTH 2 0
BBX 2 6 0 0
BITMAP
40
00
80
80
80
80
ENDCHAR
STARTCHAR icircumflex
ENCODING 238
SWIDTH 176 0
DWIDTH 2 0
BBX 2 6 0 0
BITMAP
C0
00
80
80
80
80
ENDCHAR
STARTCHAR idieresis
ENCODING 239
SWIDTH 176 0
DWIDTH 2 0
BBX 2 6 0 0
BITMAP
C0
00
80
80
80
80
ENDCHAR
STARTCHAR eth
ENCODING 240
SWIDTH 455 0
DWIDTH 5 0
BBX 4 4 0 0
BITMAP
F0
10
D0
F0
ENDCHAR
STARTCHAR ntilde
ENCODING 241
SWIDTH 444 0
DWIDTH 4 0
BBX 4 5 0 0
BITMAP
60
D0
D0
B0
90
ENDCHAR
STARTCHAR ograve
ENCODING 242
SWIDTH 494 0
DWIDTH 5 0
BBX 5 6 0 0
BITMAP
20
00
70
88
88
70
ENDCHAR
STARTCHAR oacute
ENCODING 243
SWIDTH 494 0
DWIDTH 5 0
BBX 5 6 0 0
BITMAP
20
00
70
88
88
70
ENDCHAR
STARTCHAR ocircumflex
ENCODING 244
SWIDTH 494 0
DWIDTH 5 0
BBX 5 6 0 0
BITMAP
60
00
70
88
88
70
ENDCHAR
STARTCHAR otilde
ENCODING 245
SWIDTH 494 0
DWIDTH 5 0
BBX 5 5 0 0
BITMAP
70
70
88
88
70
ENDCHAR
STARTCHAR odieresis
ENCODING 246
SWIDTH 494 0
DWIDTH 5 0
BBX 5 6 0 0
BITMAP
50
00
70
88
88
70
ENDCHAR
STARTCHAR divide
ENCODING 247
SWIDTH 418 0
DWIDTH 4 0
BBX 4 4 0 0
BITMAP
20
F0
F0
20
ENDCHAR
STARTCHAR oslash
ENCODING 248
SWIDTH 494 0
DWIDTH 5 0
BBX 5 4 0 0
BITMAP
70
A8
C8
70
ENDCHAR
STARTCHAR ugrave
ENCODING 249
SWIDTH 400 0
DWIDTH 4 0
BBX 4 6 0 0
BITMAP
40
00
90
90
90
60
ENDCHAR
STARTCHAR uacute
ENCODING 250
SWIDTH 400 0
DWIDTH 4 0
BBX 4 6 0 0
BITMAP
20
00
90
90
90
60
ENDCHAR
STARTCHAR ucircumflex
ENCODING 251
SWIDTH 400 0
DWIDTH 4 0
BBX 4 6 0 0
BITMAP
60
00
90
90
90
60
ENDCHAR
STARTCHAR udieresis
ENCODING 252
SWIDTH 400 0
DWIDTH 4 0
BBX 4 6 0 0
BITMAP
60
00
90
90
90
60
ENDCHAR
STARTCHAR yacute
ENCODING 253
SWIDTH 422 0
DWIDTH 4 0
BBX 4 6 0 0
BITMAP
20
00
D0
60
20
20
ENDCHAR
STARTCHAR thorn
ENCODING 254
SWIDTH 412 0
DWIDTH 4 0
BBX 4 4 0 0
BITMAP
E0
F0
F0
E0
ENDCHAR
STARTCHAR ydieresis
ENCODING 255
SWIDTH 422 0
DWIDTH 4 0
BBX 4 6 0 0
BITMAP
60
00
D0
60
20
20
ENDCHAR
STARTCHAR Edotaccent
ENCODING 278
SWIDTH 677 0
DWIDTH 7 0
BBX 6 10 0 0
BITMAP
10
00
BC
BC
C0
BC
BC
C0
BC
BC
ENDCHAR
STARTCHAR edotaccent
ENCODING 279
SWIDTH 363 0
DWIDTH 4 0
BBX 3 6 0 0
BITMAP
20
00
E0
E0
E0
E0
ENDCHAR
STARTCHAR dotlessi
ENCODING 305
SWIDTH 176 0
DWIDTH 2 0
BBX 1 4 0 0
BITMAP
80
80
80
80
ENDCHAR
STARTCHAR OE
ENCODING 338
SWIDTH 1221 0
DWIDTH 12 0
BBX 12 8 0 0
BITMAP
3FF0
5EF0
6700
C6E0
C6E0
6700
5EF0
3FF0
ENDCHAR
STARTCHAR oe
ENCODING 339
SWIDTH 637 0
DWIDTH 6 0
BBX 6 4 0 0
BITMAP
6C
9C
9C
6C
ENDCHAR
STARTCHAR Wcircumflex
ENCODING 372
SWIDTH 972 0
DWIDTH 10 0
BBX 10 10 0 0
BITMAP
1C00
1600
CCC0
4D80
AD80
7580
6B00
2F00
5700
3300
ENDCHAR
STARTCHAR wcircumflex
ENCODING 373
SWIDTH 521 0
DWIDTH 5 0
BBX 5 6 0 0
BITMAP
30
00
A8
E8
70
50
ENDCHAR
STARTCHAR Ycircumflex
ENCODING 374
SWIDTH 769 0
DWIDTH 8 0
BBX 8 10 0 0
BITMAP
38
28
C7
66
5C
3C
00
18
18
18
ENDCHAR
STARTCHAR ycircumflex
ENCODING 375
SWIDTH 422 0
DWIDTH 4 0
BBX 4 6 0 0
BITMAP
60
00
D0
60
20
20
ENDCHAR
STARTCHAR Ydieresis
ENCODING 376
SWIDTH 769 0
DWIDTH 8 0
BBX 8 11 0 0
BITMAP
24
5A
24
C7
66
5C
3C
00
18
18
18
ENDCHAR
STARTCHAR circumflex
ENCODING 710
SWIDTH 298 0
DWIDTH 3 0
BBX 2 1 0 5
BITMAP
C0
ENDCHAR
STARTCHAR dotaccent
ENCODING 729
SWIDTH 212 0
DWIDTH 2 0
BBX 1 1 1 5
BITMAP
80
ENDCHAR
STARTCHAR ring
ENCODING 730
SWIDTH 212 0
DWIDTH 2 0
BBX 2 2 0 4
BITMAP
40
C0
ENDCHAR
STARTCHAR tilde
ENCODING 732
SWIDTH 329 0
DWIDTH 3 0
BBX 3 1 0 4
BITMAP
E0
ENDCHAR
STARTCHAR gravecomb
ENCODING 768
SWIDTH 0 0
DWIDTH 0 0
BBX 1 1 0 5
BITMAP
80
ENDCHAR
STARTCHAR acutecomb
ENCODING 769
SWIDTH 0 0
DWIDTH 0 0
BBX 1 1 0 5
BITMAP
80
ENDCHAR
STARTCHAR uni0302
ENCODING 770
SWIDTH 0 0
DWIDTH 0 0
BBX 2 1 0 5
BITMAP
C0
ENDCHAR
STARTCHAR tildecomb
ENCODING 771
SWIDTH 0 0
DWIDTH 0 0
BBX 3 1 0 4
BITMAP
E0
ENDCHAR
STARTCHAR uni0307
ENCODING 775
SWIDTH 0 0
DWIDTH 0 0
BBX 1 1 1 5
BITMAP
80
ENDCHAR
STARTCHAR uni0308
ENCODING 776
SWIDTH 0 0
DWIDTH 0 0
BBX 2 1 0 5
BITMAP
C0
ENDCHAR
STARTCHAR uni030A
ENCODING 778
SWIDTH 0 0
DWIDTH 0 0
BBX 2 2 0 4
BITMAP
40
C0
ENDCHAR
STARTCHAR uni0327
ENCODING 807
SWIDTH 0 0
DWIDTH 0 0
BBX 2 2 0 -2
BITMAP
40
C0
ENDCHAR
STARTCHAR Wgrave
ENCODING 7808
SWIDTH 972 0
DWIDTH 10 0
BBX 10 10 0 0
BITMAP
0800
0400
CCC0
4D80
AD80
7580
6B00
2F00
5700
3300
ENDCHAR
STARTCHAR wgrave
ENCODING 7809
SWIDTH 521 0
DWIDTH 5 0
BBX 5 6 0 0
BITMAP
20
00
A8
E8
70
50
ENDCHAR
STARTCHAR Wacute
ENCODING 7810
SWIDTH 972 0
DWIDTH 10 0
BBX 10 10 0 0
BITMAP
0400
0800
CCC0
4D80
AD80
7580
6B00
2F00
5700
3300
ENDCHAR
STARTCHAR wacute
ENCODING 7811
SWIDTH 521 0
DWIDTH 5 0
BBX 5 6 0 0
BITMAP
20
00
A8
E8
70
50
ENDCHAR
STARTCHAR Wdieresis
ENCODING 7812
SWIDTH 972 0
DWIDTH 10 0
BBX 10 11 0 0
BITMAP
1200
2D00
1200
CCC0
4D80
AD80
7580
6B00
2F00
5700
3300
ENDCHAR
STARTCHAR wdieresis
ENCODING 7813
SWIDTH 521 0
DWIDTH 5 0
BBX 5 6 0 0
BITMAP
30
00
A8
E8
70
50
ENDCHAR
STARTCHAR uni1E9E
ENCODING 7838
SWIDTH 784 0
DWIDTH 8 0
BBX 7 8 0 0
BITMAP
BE
BE
CA
DC
D6
C6
DE
DE
ENDCHAR
STARTCHAR Ygrave
ENCODING 7922
SWIDTH 769 0
DWIDTH 8 0
BBX 8 10 0 0
BITMAP
10
08
C7
66
5C
3C
00
18
18
18
ENDCHAR
STARTCHAR ygrave
ENCODING 7923
SWIDTH 422 0
DWIDTH 4 0
BBX 4 6 0 0
BITMAP
20
00
D0
60
20
20
ENDCHAR
STARTCHAR endash
ENCODING 8211
SWIDTH 507 0
DWIDTH 5 0
BBX 5 2 0 1
BITMAP
F8
F8
ENDCHAR
STARTCHAR emdash
ENCODING 8212
SWIDTH 552 0
DWIDTH 6 0
BBX 5 2 0 1
BITMAP
F8
F8
ENDCHAR
STARTCHAR quoteleft
ENCODING 8216
SWIDTH 146 0
DWIDTH 1 0
BBX 1 1 0 3
BITMAP
80
ENDCHAR
STARTCHAR quoteright
ENCODING 8217
SWIDTH 146 0
DWIDTH 1 0
BBX 1 1 0 3
BITMAP
80
ENDCHAR
STARTCHAR quotesinglbase
ENCODING 8218
SWIDTH 146 0
DWIDTH 1 0
BBX 1 1 0 -1
BITMAP
80
ENDCHAR
STARTCHAR quotedblleft
ENCODING 8220
SWIDTH 297 0
DWIDTH 3 0
BBX 3 1 0 3
BITMAP
E0
ENDCHAR
STARTCHAR quotedblright
ENCODING 8221
SWIDTH 297 0
DWIDTH 3 0
BBX 3 1 0 3
BITMAP
A0
ENDCHAR
STARTCHAR quotedblbase
ENCODING 8222
SWIDTH 297 0
DWIDTH 3 0
BBX 3 1 0 -1
BITMAP
A0
ENDCHAR
STARTCHAR bullet
ENCODING 8226
SWIDTH 302 0
DWIDTH 3 0
BBX 3 3 0 1
BITMAP
40
A0
40
ENDCHAR
STARTCHAR ellipsis
ENCODING 8230
SWIDTH 528 0
DWIDTH 5 0
BBX 5 1 0 0
BITMAP
A8
ENDCHAR
STARTCHAR guilsinglleft
ENCODING 8249
SWIDTH 178 0
DWIDTH 2 0
BBX 1 2 0 1
BITMAP
80
80
ENDCHAR
STARTCHAR guilsinglright
ENCODING 8250
SWIDTH 178 0
DWIDTH 2 0
BBX 1 2 0 1
BITMAP
80
80
ENDCHAR
STARTCHAR fraction
ENCODING 8260
SWIDTH 362 0
DWIDTH 4 0
BBX 3 4 0 0
BITMAP
20
20
40
C0
ENDCHAR
STARTCHAR uni2074
ENCODING 8308
SWIDTH 204 0
DWIDTH 2 0
BBX 2 2 0 2
BITMAP
80
C0
ENDCHAR
STARTCHAR Euro
ENCODING 8364
SWIDTH 462 0
DWIDTH 5 0
BBX 4 4 0 0
BITMAP
70
C0
C0
70
ENDCHAR
STARTCHAR trademark
ENCODING 8482
SWIDTH 461 0
DWIDTH 5 0
BBX 4 2 0 2
BITMAP
D0
B0
ENDCHAR
STARTCHAR minus
ENCODING 8722
SWIDTH 420 0
DWIDTH 4 0
BBX 4 1 0 1
BITMAP
F0
ENDCHAR
STARTCHAR uni2215
ENCODING 8725
SWIDTH 278 0
DWIDTH 3 0
BBX 3 4 0 0
BITMAP
60
40
C0
80
ENDCHAR
STARTCHAR .notdef
ENCODING -1
SWIDTH 500 0
DWIDTH 5 0
BBX 5 12 0 -3
BITMAP
F8
88
88
88
88
88
88
88
88
88
88
F8
ENDCHAR
STARTCHAR NULL
ENCODING -1
SWIDTH 600 0
DWIDTH 6 0
BBX 1 1 0 0
BITMAP
00
ENDCHAR
STARTCHAR acutecomb.case
ENCODING -1
SWIDTH 0 0
DWIDTH 0 0
BBX 3 2 0 8
BITMAP
60
C0
ENDCHAR
STARTCHAR ampersand.case
ENCODING -1
SWIDTH 797 0
DWIDTH 8 0
BBX 8 8 0 0
BITMAP
38
54
6C
58
FA
FF
B4
7E
ENDCHAR
STARTCHAR asciicircum.case
ENCODING -1
SWIDTH 540 0
DWIDTH 5 0
BBX 5 4 0 4
BITMAP
20
30
50
D8
ENDCHAR
STARTCHAR asciitilde.case
ENCODING -1
SWIDTH 640 0
DWIDTH 6 0
BBX 6 3 0 3
BITMAP
64
F8
9C
ENDCHAR
STARTCHAR asterisk.case
ENCODING -1
SWIDTH 482 0
DWIDTH 5 0
BBX 4 4 0 4
BITMAP
20
D0
50
50
ENDCHAR
STARTCHAR at.case
ENCODING -1
SWIDTH 915 0
DWIDTH 9 0
BBX 9 8 0 0
BITMAP
3E00
5D00
6C80
B480
A480
5F80
4300
3E00
ENDCHAR
STARTCHAR backslash.case
ENCODING -1
SWIDTH 504 0
DWIDTH 5 0
BBX 5 9 0 -1
BITMAP
C0
40
60
60
20
30
30
10
18
ENDCHAR
STARTCHAR bar.case
ENCODING -1
SWIDTH 262 0
DWIDTH 3 0
BBX 2 9 0 -1
BITMAP
C0
C0
C0
C0
C0
C0
C0
C0
C0
ENDCHAR
STARTCHAR braceleft.case
ENCODING -1
SWIDTH 504 0
DWIDTH 5 0
BBX 5 10 0 -1
BITMAP
28
20
28
20
A0
A0
20
20
28
28
ENDCHAR
STARTCHAR braceright.case
ENCODING -1
SWIDTH 506 0
DWIDTH 5 0
BBX 4 10 1 -1
BITMAP
C0
C0
40
40
50
50
40
C0
40
C0
ENDCHAR
STARTCHAR bracketleft.case
ENCODING -1
SWIDTH 453 0
DWIDTH 5 0
BBX 4 10 0 -1
BITMAP
B0
C0
B0
C0
C0
C0
C0
C0
B0
B0
ENDCHAR
STARTCHAR bracketright.case
ENCODING -1
SWIDTH 453 0
DWIDTH 5 0
BBX 4 10 0 -1
BITMAP
F0
F0
30
30
30
30
30
F0
30
F0
ENDCHAR
STARTCHAR brokenbar.case
ENCODING -1
SWIDTH 262 0
DWIDTH 3 0
BBX 2 9 0 0
BITMAP
C0
C0
C0
C0
00
C0
C0
C0
C0
ENDCHAR
STARTCHAR bullet.case
ENCODING -1
SWIDTH 503 0
DWIDTH 5 0
BBX 5 5 0 2
BITMAP
20
F8
88
F8
70
ENDCHAR
STARTCHAR uni0327.case
ENCODING -1
SWIDTH 0 0
DWIDTH 0 0
BBX 3 2 0 -3
BITMAP
60
C0
ENDCHAR
STARTCHAR cent.case
ENCODING -1
SWIDTH 577 0
DWIDTH 6 0
BBX 4 9 1 0
BITMAP
20
00
70
F0
80
80
F0
60
20
ENDCHAR
STARTCHAR uni0302.case
ENCODING -1
SWIDTH 0 0
DWIDTH 0 0
BBX 5 2 0 8
BITMAP
30
D8
ENDCHAR
STARTCHAR colon.case
ENCODING -1
SWIDTH 262 0
DWIDTH 3 0
BBX 2 5 0 0
BITMAP
C0
C0
00
C0
C0
ENDCHAR
STARTCHAR comma.case
ENCODING -1
SWIDTH 338 0
DWIDTH 3 0
BBX 3 3 0 -1
BITMAP
60
60
C0
ENDCHAR
STARTCHAR copyright.case
ENCODING -1
SWIDTH 895 0
DWIDTH 9 0
BBX 9 8 0 0
BITMAP
3E00
4100
4D00
B080
A080
5D00
4100
3E00
ENDCHAR
STARTCHAR currency.case
ENCODING -1
SWIDTH 676 0
DWIDTH 7 0
BBX 6 6 0 0
BITMAP
48
DC
78
54
FC
44
ENDCHAR
STARTCHAR degree.case
ENCODING -1
SWIDTH 413 0
DWIDTH 4 0
BBX 4 4 0 4
BITMAP
60
90
F0
60
ENDCHAR
STARTCHAR uni0308.case
ENCODING -1
SWIDTH 0 0
DWIDTH 0 0
BBX 5 3 0 8
BITMAP
48
B8
48
ENDCHAR
STARTCHAR divide.case
ENCODING -1
SWIDTH 618 0
DWIDTH 6 0
BBX 6 6 0 1
BITMAP
10
10
FC
FC
10
10
ENDCHAR
STARTCHAR uni2215.case
ENCODING -1
SWIDTH 483 0
DWIDTH 5 0
BBX 5 8 0 0
BITMAP
18
30
30
20
60
60
40
C0
ENDCHAR
STARTCHAR dollar.case
ENCODING -1
SWIDTH 660 0
DWIDTH 7 0
BBX 6 9 0 -1
BITMAP
10
5C
DC
E0
5C
2C
DC
5C
10
ENDCHAR
STARTCHAR eight.case
ENCODING -1
SWIDTH 561 0
DWIDTH 6 0
BBX 5 8 0 0
BITMAP
70
B8
C8
78
B8
C8
B8
70
ENDCHAR
STARTCHAR ellipsis.case
ENCODING -1
SWIDTH 766 0
DWIDTH 8 0
BBX 7 2 0 0
BITMAP
DA
DA
ENDCHAR
STARTCHAR emdash.case
ENCODING -1
SWIDTH 790 0
DWIDTH 8 0
BBX 7 2 0 3
BITMAP
FE
FE
ENDCHAR
STARTCHAR endash.case
ENCODING -1
SWIDTH 721 0
DWIDTH 7 0
BBX 7 2 0 3
BITMAP
FE
FE
ENDCHAR
STARTCHAR equal.case
ENCODING -1
SWIDTH 618 0
DWIDTH 6 0
BBX 6 5 0 1
BITMAP
FC
FC
00
FC
FC
ENDCHAR
STARTCHAR Euro.case
ENCODING -1
SWIDTH 767 0
DWIDTH 8 0
BBX 7 8 0 0
BITMAP
1E
3E
60
F8
F8
60
3E
1E
ENDCHAR
STARTCHAR exclam.case
ENCODING -1
SWIDTH 262 0
DWIDTH 3 0
BBX 2 8 0 0
BITMAP
C0
C0
C0
C0
C0
C0
C0
C0
ENDCHAR
STARTCHAR exclamdown.case
ENCODING -1
SWIDTH 262 0
DWIDTH 3 0
BBX 2 8 0 -2
BITMAP
C0
C0
C0
C0
C0
C0
C0
C0
ENDCHAR
STARTCHAR five.case
ENCODING -1
SWIDTH 558 0
DWIDTH 6 0
BBX 5 8 0 0
BITMAP
78
78
C0
D0
F8
08
B8
70
ENDCHAR
STARTCHAR four.case
ENCODING -1
SWIDTH 585 0
DWIDTH 6 0
BBX 6 8 0 0
BITMAP
30
30
20
60
58
EC
EC
18
ENDCHAR
STARTCHAR uni2074.case
ENCODING -1
SWIDTH 312 0
DWIDTH 3 0
BBX 3 4 0 4
BITMAP
40
40
E0
20
ENDCHAR
STARTCHAR fraction.case
ENCODING -1
SWIDTH 655 0
DWIDTH 7 0
BBX 6 8 0 0
BITMAP
04
08
08
10
30
20
40
C0
ENDCHAR
STARTCHAR gravecomb.case
ENCODING -1
SWIDTH 0 0
DWIDTH 0 0
BBX 3 2 0 8
BITMAP
C0
60
ENDCHAR
STARTCHAR greater.case
ENCODING -1
SWIDTH 677 0
DWIDTH 7 0
BBX 6 6 0 1
BITMAP
C0
F0
3C
2C
F0
C0
ENDCHAR
STARTCHAR guillemotleft.case
ENCODING -1
SWIDTH 666 0
DWIDTH 7 0
BBX 6 6 0 1
BITMAP
24
6C
AC
EC
6C
24
ENDCHAR
STARTCHAR guillemotright.case
ENCODING -1
SWIDTH 666 0
DWIDTH 7 0
BBX 6 6 0 1
BITMAP
90
DC
AC
6C
CC
90
ENDCHAR
STARTCHAR guilsinglleft.case
ENCODING -1
SWIDTH 338 0
DWIDTH 3 0
BBX 3 6 0 1
BITMAP
20
60
A0
E0
60
20
ENDCHAR
STARTCHAR guilsinglright.case
ENCODING -1
SWIDTH 338 0
DWIDTH 3 0
BBX 3 6 0 1
BITMAP
80
C0
A0
60
C0
80
ENDCHAR
STARTCHAR hyphen.case
ENCODING -1
SWIDTH 445 0
DWIDTH 4 0
BBX 4 2 0 3
BITMAP
F0
F0
ENDCHAR
STARTCHAR less.case
ENCODING -1
SWIDTH 677 0
DWIDTH 7 0
BBX 6 6 0 1
BITMAP
0C
1C
E8
78
1C
04
ENDCHAR
STARTCHAR logicalnot.case
ENCODING -1
SWIDTH 618 0
DWIDTH 6 0
BBX 6 4 0 1
BITMAP
FC
FC
0C
0C
ENDCHAR
STARTCHAR uni00B5.case
ENCODING -1
SWIDTH 792 0
DWIDTH 8 0
BBX 8 10 0 -2
BITMAP
C6
C6
C6
C6
C6
CC
F5
FB
C0
C0
ENDCHAR
STARTCHAR minus.case
ENCODING -1
SWIDTH 618 0
DWIDTH 6 0
BBX 6 2 0 3
BITMAP
FC
FC
ENDCHAR
STARTCHAR multiply.case
ENCODING -1
SWIDTH 580 0
DWIDTH 6 0
BBX 5 5 0 1
BITMAP
50
68
50
B8
48
ENDCHAR
STARTCHAR nine.case
ENCODING -1
SWIDTH 558 0
DWIDTH 6 0
BBX 5 8 0 0
BITMAP
70
B8
C8
68
28
C8
B8
70
ENDCHAR
STARTCHAR numbersign.case
ENCODING -1
SWIDTH 776 0
DWIDTH 8 0
BBX 7 8 0 0
BITMAP
36
5E
6E
6E
FA
FA
6C
6C
ENDCHAR
STARTCHAR one.case
ENCODING -1
SWIDTH 378 0
DWIDTH 4 0
BBX 3 8 0 0
BITMAP
A0
A0
20
20
20
20
20
20
ENDCHAR
STARTCHAR onehalf.case
ENCODING -1
SWIDTH 735 0
DWIDTH 7 0
BBX 7 8 0 0
BITMAP
A4
24
28
18
1E
26
2E
4E
ENDCHAR
STARTCHAR onequarter.case
ENCODING -1
SWIDTH 722 0
DWIDTH 7 0
BBX 7 8 0 0
BITMAP
A4
24
28
18
14
2C
2A
42
ENDCHAR
STARTCHAR uni00B9.case
ENCODING -1
SWIDTH 306 0
DWIDTH 3 0
BBX 3 3 0 5
BITMAP
A0
20
20
ENDCHAR
STARTCHAR ordfeminine.case
ENCODING -1
SWIDTH 456 0
DWIDTH 5 0
BBX 4 3 0 5
BITMAP
20
60
F0
ENDCHAR
STARTCHAR ordmasculine.case
ENCODING -1
SWIDTH 489 0
DWIDTH 5 0
BBX 4 4 0 4
BITMAP
70
90
F0
60
ENDCHAR
STARTCHAR paragraph.case
ENCODING -1
SWIDTH 893 0
DWIDTH 9 0
BBX 8 8 0 0
BITMAP
7F
BF
C5
B5
75
05
05
05
ENDCHAR
STARTCHAR parenleft.case
ENCODING -1
SWIDTH 290 0
DWIDTH 3 0
BBX 3 9 0 -1
BITMAP
60
40
40
C0
C0
C0
40
40
60
ENDCHAR
STARTCHAR parenright.case
ENCODING -1
SWIDTH 290 0
DWIDTH 3 0
BBX 3 9 0 0
BITMAP
C0
C0
40
60
60
60
40
C0
C0
ENDCHAR
STARTCHAR percent.case
ENCODING -1
SWIDTH 827 0
DWIDTH 8 0
BBX 8 8 0 0
BITMAP
65
96
F4
6C
36
3F
69
E6
ENDCHAR
STARTCHAR period.case
ENCODING -1
SWIDTH 262 0
DWIDTH 3 0
BBX 2 2 0 0
BITMAP
C0
C0
ENDCHAR
STARTCHAR periodcentered.case
ENCODING -1
SWIDTH 262 0
DWIDTH 3 0
BBX 2 2 0 3
BITMAP
C0
C0
ENDCHAR
STARTCHAR plus.case
ENCODING -1
SWIDTH 616 0
DWIDTH 6 0
BBX 6 5 0 1
BITMAP
30
EC
EC
30
30
ENDCHAR
STARTCHAR plusminus.case
ENCODING -1
SWIDTH 618 0
DWIDTH 6 0
BBX 6 7 0 0
BITMAP
30
EC
EC
30
30
FC
FC
ENDCHAR
STARTCHAR question.case
ENCODING -1
SWIDTH 598 0
DWIDTH 6 0
BBX 5 8 0 0
BITMAP
78
78
88
18
30
30
30
30
ENDCHAR
STARTCHAR questiondown.case
ENCODING -1
SWIDTH 598 0
DWIDTH 6 0
BBX 5 8 0 -2
BITMAP
30
30
30
50
E0
C0
78
78
ENDCHAR
STARTCHAR quotedbl.case
ENCODING -1
SWIDTH 464 0
DWIDTH 5 0
BBX 4 3 0 5
BITMAP
D0
D0
D0
ENDCHAR
STARTCHAR quotedblbase.case
ENCODING -1
SWIDTH 464 0
DWIDTH 5 0
BBX 4 3 0 -1
BITMAP
D0
D0
50
ENDCHAR
STARTCHAR quotedblleft.case
ENCODING -1
SWIDTH 464 0
DWIDTH 5 0
BBX 4 3 0 5
BITMAP
90
D0
D0
ENDCHAR
STARTCHAR quotedblright.case
ENCODING -1
SWIDTH 464 0
DWIDTH 5 0
BBX 4 3 0 5
BITMAP
D0
D0
50
ENDCHAR
STARTCHAR quoteleft.case
ENCODING -1
SWIDTH 212 0
DWIDTH 2 0
BBX 2 3 0 5
BITMAP
80
C0
C0
ENDCHAR
STARTCHAR quoteright.case
ENCODING -1
SWIDTH 212 0
DWIDTH 2 0
BBX 2 3 0 5
BITMAP
C0
C0
40
ENDCHAR
STARTCHAR quotesinglbase.case
ENCODING -1
SWIDTH 212 0
DWIDTH 2 0
BBX 2 3 0 -1
BITMAP
C0
C0
40
ENDCHAR
STARTCHAR quotesingle.case
ENCODING -1
SWIDTH 212 0
DWIDTH 2 0
BBX 2 3 0 5
BITMAP
C0
C0
C0
ENDCHAR
STARTCHAR registered.case
ENCODING -1
SWIDTH 895 0
DWIDTH 9 0
BBX 9 8 0 0
BITMAP
3E00
4100
5D00
9A80
9480
5500
4100
3E00
ENDCHAR
STARTCHAR uni030A.case
ENCODING -1
SWIDTH 0 0
DWIDTH 0 0
BBX 3 3 0 8
BITMAP
40
A0
40
ENDCHAR
STARTCHAR section.case
ENCODING -1
SWIDTH 645 0
DWIDTH 6 0
BBX 6 11 0 -2
BITMAP
38
5C
60
5C
6C
4C
70
3C
4C
B4
78
ENDCHAR
STARTCHAR semicolon.case
ENCODING -1
SWIDTH 338 0
DWIDTH 3 0
BBX 3 6 0 -1
BITMAP
60
60
00
60
60
C0
ENDCHAR
STARTCHAR seven.case
ENCODING -1
SWIDTH 505 0
DWIDTH 5 0
BBX 5 8 0 0
BITMAP
F8
F8
10
30
30
30
20
60
ENDCHAR
STARTCHAR six.case
ENCODING -1
SWIDTH 558 0
DWIDTH 6 0
BBX 5 8 0 0
BITMAP
70
B8
C8
B0
B8
C8
B8
70
ENDCHAR
STARTCHAR slash.case
ENCODING -1
SWIDTH 504 0
DWIDTH 5 0
BBX 5 9 0 -1
BITMAP
18
10
30
30
20
60
60
40
C0
ENDCHAR
STARTCHAR uni00AD.case
ENCODING -1
SWIDTH 445 0
DWIDTH 4 0
BBX 4 2 0 3
BITMAP
F0
F0
ENDCHAR
STARTCHAR sterling.case
ENCODING -1
SWIDTH 618 0
DWIDTH 6 0
BBX 6 8 0 0
BITMAP
78
74
C8
F0
F0
A0
FC
FC
ENDCHAR
STARTCHAR three.case
ENCODING -1
SWIDTH 558 0
DWIDTH 6 0
BBX 5 8 0 0
BITMAP
70
B8
C8
18
18
C8
B8
70
ENDCHAR
STARTCHAR threequarters.case
ENCODING -1
SWIDTH 722 0
DWIDTH 7 0
BBX 7 8 0 0
BITMAP
E4
44
E8
58
14
2C
2A
42
ENDCHAR
STARTCHAR uni00B3.case
ENCODING -1
SWIDTH 332 0
DWIDTH 3 0
BBX 3 4 0 4
BITMAP
E0
40
E0
40
ENDCHAR
STARTCHAR tildecomb.case
ENCODING -1
SWIDTH 0 0
DWIDTH 0 0
BBX 4 2 0 8
BITMAP
50
B0
ENDCHAR
STARTCHAR trademark.case
ENCODING -1
SWIDTH 850 0
DWIDTH 9 0
BBX 8 4 0 4
BITMAP
EB
4D
4F
49
ENDCHAR
STARTCHAR two.case
ENCODING -1
SWIDTH 558 0
DWIDTH 6 0
BBX 5 8 0 0
BITMAP
70
B8
08
18
28
50
78
78
ENDCHAR
STARTCHAR uni00B2.case
ENCODING -1
SWIDTH 339 0
DWIDTH 3 0
BBX 3 4 0 4
BITMAP
60
60
E0
E0
ENDCHAR
STARTCHAR underscore.case
ENCODING -1
SWIDTH 667 0
DWIDTH 7 0
BBX 6 2 0 0
BITMAP
FC
FC
ENDCHAR
STARTCHAR yen.case
ENCODING -1
SWIDTH 769 0
DWIDTH 8 0
BBX 8 8 0 0
BITMAP
C7
6A
34
38
28
2C
2C
18
ENDCHAR
STARTCHAR zero.case
ENCODING -1
SWIDTH 558 0
DWIDTH 6 0
BBX 5 8 0 0
BITMAP
70
B8
C8
C8
C8
C8
B8
70
ENDCHAR
ENDFONT
